<?xml version="1.0" encoding="utf-8"?>
<!-- Generator: Adobe Illustrator 21.0.0, SVG Export Plug-In . SVG Version: 6.00 Build 0)  -->
<svg version="1.1" id="Spine_Logo" xmlns="http://www.w3.org/2000/svg" xmlns:xlink="http://www.w3.org/1999/xlink" x="0px" y="0px"
	 viewBox="0 0 583.6 174.8" style="enable-background:new 0 0 583.6 174.8;" xml:space="preserve">
<style type="text/css">
	.st0{fill:#F1F1F2;}
	.st1{fill:#FF4000;}
</style>
<path id="e" class="st0" d="M583.6,71.2c0,2.8-0.7,4.7-2.1,5.9c-1.4,1.2-3,1.8-4.7,1.8h-62.9c0,5.3,0.5,10.1,1.6,14.3
	c1.1,4.2,2.8,7.9,5.3,10.9c2.5,3,5.7,5.4,9.7,7c4,1.6,8.9,2.4,14.6,2.4c4.6,0,8.6-0.4,12.2-1.1c3.6-0.7,6.6-1.6,9.2-2.5
	c2.6-0.9,4.7-1.8,6.4-2.5c1.7-0.7,2.9-1.1,3.8-1.1c0.5,0,0.9,0.1,1.3,0.4c0.4,0.3,0.7,0.6,0.9,1.1c0.2,0.5,0.4,1.2,0.5,2.1
	c0.1,0.9,0.2,2,0.2,3.2c0,0.9,0,1.7-0.1,2.4c-0.1,0.7-0.2,1.3-0.3,1.8c-0.1,0.5-0.3,1-0.5,1.4c-0.3,0.4-0.6,0.8-1,1.2
	c-0.4,0.4-1.5,1-3.4,1.9c-1.9,0.9-4.4,1.8-7.4,2.6c-3,0.8-6.6,1.6-10.6,2.3c-4,0.7-8.3,1-12.8,1c-7.9,0-14.7-1.1-20.7-3.3
	c-5.9-2.2-10.9-5.4-14.9-9.8c-4-4.3-7.1-9.7-9.1-16.2c-2.1-6.5-3.1-14.1-3.1-22.7c0-8.2,1.1-15.6,3.2-22.1
	c2.1-6.5,5.2-12.1,9.2-16.7c4-4.6,8.8-8.1,14.5-10.5c5.7-2.4,12-3.7,19-3.7c7.5,0,13.9,1.2,19.2,3.6c5.3,2.4,9.6,5.6,13,9.7
	c3.4,4.1,5.9,8.8,7.5,14.3c1.6,5.5,2.4,11.3,2.4,17.6V71.2z M566,66c0.2-9.2-1.8-16.4-6.1-21.7c-4.3-5.2-10.7-7.9-19.2-7.9
	c-4.3,0-8.2,0.8-11.4,2.4c-3.3,1.6-6,3.8-8.2,6.5c-2.2,2.7-3.9,5.8-5.1,9.4c-1.2,3.6-1.9,7.3-2,11.2H566z"/>
<path id="n" class="st0" d="M452.7,123.1c0,0.6-0.1,1-0.4,1.4c-0.3,0.4-0.7,0.7-1.4,1c-0.6,0.3-1.5,0.5-2.7,0.6
	c-1.1,0.1-2.5,0.2-4.2,0.2c-1.8,0-3.2-0.1-4.4-0.2c-1.1-0.1-2-0.4-2.7-0.6c-0.6-0.3-1.1-0.6-1.4-1c-0.3-0.4-0.4-0.9-0.4-1.4V67.1
	c0-5.4-0.4-9.8-1.3-13.2c-0.8-3.3-2.1-6.2-3.7-8.6c-1.6-2.4-3.7-4.2-6.3-5.5c-2.6-1.3-5.6-1.9-9-1.9c-4.4,0-8.8,1.6-13.2,4.7
	c-4.4,3.1-9,7.7-13.8,13.7v66.8c0,0.6-0.1,1-0.4,1.4c-0.3,0.4-0.7,0.7-1.4,1c-0.6,0.3-1.5,0.5-2.7,0.6c-1.1,0.1-2.6,0.2-4.4,0.2
	c-1.7,0-3.1-0.1-4.2-0.2c-1.1-0.1-2-0.4-2.7-0.6c-0.7-0.3-1.1-0.6-1.4-1c-0.3-0.4-0.4-0.9-0.4-1.4V27.5c0-0.6,0.1-1,0.3-1.4
	c0.2-0.4,0.6-0.7,1.3-1.1c0.6-0.3,1.4-0.5,2.4-0.6c1-0.1,2.3-0.2,3.9-0.2c1.6,0,2.8,0.1,3.9,0.2c1,0.1,1.8,0.3,2.4,0.6
	c0.6,0.3,1,0.7,1.2,1.1c0.2,0.4,0.4,0.9,0.4,1.4v12.6c5.4-6,10.7-10.4,16.1-13.2c5.3-2.8,10.7-4.2,16.2-4.2c6.4,0,11.7,1.1,16.1,3.2
	c4.4,2.2,7.9,5,10.6,8.7c2.7,3.6,4.6,7.8,5.8,12.7c1.2,4.8,1.8,10.7,1.8,17.5V123.1z"/>
<g id="i">
	<path class="st1" d="M243.3,16.1c0.5,14.6,10.6,22.7,30.8,25.9c17.1,2.7,32.5,1.3,37.5-13.3C321.3,0.1,298.1,7.2,277.9,4
		C257.8,0.8,242.5-7.4,243.3,16.1z"/>
	<path class="st1" d="M249.3,76c1.9,10.9,12,17.2,27.6,16.7c15.5-0.4,27.1-6.5,28.8-18.3c3-21.8-14.2-13.4-29.7-12.9
		C260.4,62,245.6,54.6,249.3,76z"/>
	<path class="st1" d="M269.6,125.9c3.1,8.1,11.6,11.6,23,9.1c11.4-2.4,19.4-6.2,18.7-15.5c-1.2-17.2-12.5-11.8-23.9-9.3
		C275.9,112.7,263.5,110,269.6,125.9z"/>
	<path class="st1" d="M279.4,164c0.9,6.9,6.8,10.9,16.1,10.9c9.3-0.1,16.4-3.8,17.6-11.1c2.2-13.6-8.2-8.6-17.5-8.5
		C286.3,155.3,277.6,150.5,279.4,164z"/>
</g>
<path id="p" class="st0" d="M198,73.8c0,8.4-0.9,15.9-2.7,22.5c-1.8,6.7-4.5,12.3-8,16.9c-3.5,4.6-7.8,8.2-13,10.7
	c-5.2,2.5-11.1,3.8-17.7,3.8c-2.8,0-5.5-0.3-7.9-0.8c-2.4-0.6-4.8-1.4-7.1-2.7c-2.3-1.2-4.6-2.7-6.8-4.6c-2.3-1.8-4.7-4-7.2-6.5V161
	c0,0.6-0.1,1.1-0.4,1.5c-0.3,0.4-0.7,0.8-1.4,1.1c-0.6,0.3-1.5,0.5-2.7,0.6c-1.1,0.1-2.6,0.2-4.4,0.2c-1.7,0-3.1-0.1-4.2-0.2
	c-1.1-0.1-2-0.4-2.7-0.6c-0.7-0.3-1.1-0.6-1.4-1.1c-0.2-0.4-0.4-0.9-0.4-1.5V27.5c0-0.6,0.1-1.1,0.3-1.5c0.2-0.4,0.6-0.7,1.3-1
	c0.6-0.3,1.5-0.5,2.4-0.6c1-0.1,2.2-0.2,3.6-0.2c1.5,0,2.7,0.1,3.7,0.2c1,0.1,1.8,0.3,2.4,0.6c0.6,0.3,1.1,0.6,1.3,1
	c0.2,0.4,0.4,0.9,0.4,1.5v12.8c2.9-3,5.7-5.6,8.4-7.8c2.7-2.2,5.4-4,8.1-5.5c2.7-1.4,5.5-2.5,8.4-3.3c2.9-0.7,5.9-1.1,9.1-1.1
	c6.9,0,12.8,1.3,17.7,4c4.9,2.7,8.9,6.4,11.9,11c3.1,4.7,5.3,10.1,6.7,16.3C197.3,60.3,198,66.9,198,73.8z M179.8,75.9
	c0-4.9-0.4-9.6-1.1-14.2c-0.7-4.6-2-8.6-3.8-12.2c-1.8-3.5-4.3-6.4-7.3-8.5c-3.1-2.1-6.9-3.2-11.4-3.2c-2.3,0-4.5,0.3-6.7,1
	c-2.2,0.7-4.5,1.7-6.7,3.2c-2.3,1.5-4.7,3.4-7.2,5.7c-2.5,2.4-5.1,5.3-7.9,8.8v38c4.8,5.9,9.4,10.4,13.8,13.5
	c4.3,3.1,8.9,4.7,13.7,4.7c4.4,0,8.2-1.1,11.4-3.2c3.2-2.1,5.7-5,7.7-8.5c2-3.5,3.4-7.5,4.3-11.9C179.4,84.7,179.8,80.3,179.8,75.9z
	"/>
<path id="s" class="st0" d="M67.6,97.1c0,4.9-0.9,9.2-2.7,13.1c-1.8,3.8-4.4,7-7.7,9.7c-3.3,2.6-7.3,4.6-11.9,5.9
	c-4.6,1.3-9.7,2-15.2,2c-3.4,0-6.6-0.3-9.7-0.8c-3.1-0.5-5.8-1.2-8.3-2c-2.4-0.8-4.5-1.7-6.2-2.5c-1.7-0.9-2.9-1.7-3.7-2.4
	c-0.8-0.7-1.3-1.7-1.7-3c-0.4-1.3-0.5-3-0.5-5.2c0-1.3,0.1-2.5,0.2-3.4c0.1-0.9,0.3-1.7,0.5-2.2s0.5-1,0.9-1.2
	c0.4-0.2,0.8-0.4,1.3-0.4c0.8,0,1.9,0.5,3.5,1.4c1.5,1,3.4,2,5.6,3.1c2.2,1.1,4.9,2.2,7.9,3.1c3,1,6.5,1.4,10.5,1.4
	c3,0,5.7-0.3,8.1-1c2.4-0.6,4.5-1.6,6.3-2.8c1.8-1.2,3.1-2.8,4.1-4.7c1-1.9,1.4-4.2,1.4-6.8c0-2.7-0.7-5-2.1-6.8
	c-1.4-1.8-3.2-3.5-5.5-4.9c-2.3-1.4-4.8-2.7-7.6-3.8c-2.8-1.1-5.8-2.2-8.8-3.5c-3-1.2-5.9-2.6-8.8-4.1c-2.9-1.5-5.4-3.4-7.7-5.6
	c-2.3-2.2-4.1-4.8-5.5-7.9C3,59,2.3,55.4,2.3,51.1c0-3.8,0.7-7.3,2.2-10.8c1.4-3.4,3.6-6.4,6.5-9c2.9-2.6,6.5-4.7,10.9-6.2
	c4.4-1.6,9.4-2.3,15.2-2.3c2.5,0,5.1,0.2,7.6,0.6c2.5,0.4,4.8,1,6.9,1.6c2.1,0.6,3.8,1.3,5.3,2.1c1.4,0.7,2.5,1.4,3.3,2
	c0.7,0.6,1.2,1.1,1.5,1.5c0.2,0.4,0.4,0.9,0.5,1.4c0.1,0.5,0.2,1.2,0.3,2c0.1,0.8,0.2,1.7,0.2,2.9c0,1.2-0.1,2.2-0.2,3.1
	c-0.1,0.9-0.3,1.6-0.5,2.2c-0.2,0.6-0.5,1-0.9,1.2c-0.4,0.2-0.7,0.4-1.2,0.4c-0.6,0-1.6-0.4-2.8-1.2c-1.2-0.8-2.8-1.6-4.7-2.5
	c-1.9-0.9-4.2-1.7-6.7-2.5c-2.6-0.8-5.5-1.2-8.9-1.2c-3,0-5.6,0.3-7.9,1C26.8,38,25,39,23.5,40.2c-1.5,1.2-2.5,2.7-3.3,4.4
	c-0.7,1.7-1.1,3.5-1.1,5.5c0,2.8,0.7,5.1,2.1,7c1.4,1.9,3.3,3.5,5.5,4.9c2.3,1.4,4.8,2.7,7.8,3.8c2.9,1.1,5.9,2.3,8.9,3.5
	c3,1.2,6,2.5,8.9,4c2.9,1.5,5.5,3.3,7.8,5.4c2.3,2.1,4.1,4.7,5.5,7.6C66.9,89.4,67.6,93,67.6,97.1z"/>
</svg>
